<svg xmlns="http://www.w3.org/2000/svg" xmlns:xlink="http://www.w3.org/1999/xlink" width="250" zoomAndPan="magnify" viewBox="0 0 187.5 125.999998" height="168" preserveAspectRatio="xMidYMid meet" version="1.0"><defs><g/><clipPath id="fe27df9560"><path d="M 78 10 L 117 10 L 117 54 L 78 54 Z M 78 10 " clip-rule="nonzero"/></clipPath><clipPath id="191653492a"><path d="M 98.976562 15.019531 C 106.839844 16.664062 112.800781 23.683594 112.800781 32.011719 C 112.800781 39.386719 108.128906 45.726562 101.605469 48.230469 C 101.453125 49.835938 100.828125 51.375 99.9375 52.808594 C 99.90625 52.855469 99.875 52.90625 99.84375 52.953125 C 109.519531 50.910156 116.839844 42.273438 116.839844 32.011719 C 116.839844 20.242188 107.210938 10.609375 95.4375 10.609375 L 92.113281 10.609375 L 92.113281 11.050781 L 98.976562 15.011719 Z M 89.324219 49.375 L 82.640625 49.375 L 82.640625 48.269531 C 82.640625 47.363281 81.902344 46.625 80.996094 46.625 L 80.238281 46.625 C 79.335938 46.625 78.597656 47.363281 78.597656 48.269531 L 78.597656 51.773438 C 78.597656 52.675781 79.335938 53.414062 80.238281 53.414062 L 91.832031 53.414062 C 91.726562 52.890625 91.554688 52.382812 91.308594 51.890625 C 90.851562 50.972656 90.152344 50.136719 89.320312 49.375 Z M 89.324219 49.375 " clip-rule="evenodd"/></clipPath><clipPath id="dd4c7b3fb1"><path d="M 92 12 L 98 12 L 98 41 L 92 41 Z M 92 12 " clip-rule="nonzero"/></clipPath><clipPath id="930bb4991c"><path d="M 92.304688 36.847656 L 92.320312 12.929688 L 97.453125 15.894531 L 97.453125 40.320312 L 97.453125 40.316406 L 97.375 40.25 L 97.292969 40.179688 L 97.285156 40.171875 C 95.761719 38.886719 93.992188 37.785156 92.308594 36.847656 L 92.304688 36.84375 Z M 92.304688 36.847656 " clip-rule="evenodd"/></clipPath><clipPath id="85b9e10dad"><path d="M 85 6 L 91 6 L 91 36 L 85 36 Z M 85 6 " clip-rule="nonzero"/></clipPath><clipPath id="d1da6a5d87"><path d="M 90.59375 12.652344 L 90.59375 35.921875 C 90.308594 35.773438 90.03125 35.628906 89.765625 35.492188 C 88.355469 34.761719 86.894531 34.050781 85.460938 33.308594 L 85.460938 6.667969 L 90.59375 9.628906 Z M 90.59375 12.652344 " clip-rule="evenodd"/></clipPath><clipPath id="df001733c3"><path d="M 78 0.167969 L 84 0.167969 L 84 33 L 78 33 Z M 78 0.167969 " clip-rule="nonzero"/></clipPath><clipPath id="084a5f208a"><path d="M 83.730469 3.128906 L 83.730469 32.386719 C 83.066406 32.019531 82.414062 31.636719 81.777344 31.238281 C 80.859375 30.65625 79.316406 29.621094 78.597656 28.472656 L 78.597656 0.167969 Z M 83.730469 3.128906 " clip-rule="evenodd"/></clipPath><clipPath id="f921f595a0"><path d="M 74 24 L 101 24 L 101 60.007812 L 74 60.007812 Z M 74 24 " clip-rule="nonzero"/></clipPath><clipPath id="200aa37bc1"><path d="M 34.101562 107.695312 L 93.671875 107.695312 L 93.671875 125.644531 L 34.101562 125.644531 Z M 34.101562 107.695312 " clip-rule="nonzero"/></clipPath><clipPath id="f6d9b36292"><path d="M 93.191406 107.695312 L 152.761719 107.695312 L 152.761719 125.644531 L 93.191406 125.644531 Z M 93.191406 107.695312 " clip-rule="nonzero"/></clipPath></defs><g clip-path="url(#fe27df9560)"><g clip-path="url(#191653492a)"><path fill="#3b291f" d="M 78.597656 10.609375 L 78.597656 53.414062 L 116.839844 53.414062 L 116.839844 10.609375 Z M 78.597656 10.609375 " fill-opacity="1" fill-rule="nonzero"/></g></g><g clip-path="url(#dd4c7b3fb1)"><g clip-path="url(#930bb4991c)"><path fill="#3b291f" d="M 92.304688 12.929688 L 92.304688 40.320312 L 97.453125 40.320312 L 97.453125 12.929688 Z M 92.304688 12.929688 " fill-opacity="1" fill-rule="nonzero"/></g></g><g clip-path="url(#85b9e10dad)"><g clip-path="url(#d1da6a5d87)"><path fill="#3b291f" d="M 85.460938 6.667969 L 85.460938 35.921875 L 90.59375 35.921875 L 90.59375 6.667969 Z M 85.460938 6.667969 " fill-opacity="1" fill-rule="nonzero"/></g></g><g clip-path="url(#df001733c3)"><g clip-path="url(#084a5f208a)"><path fill="#3b291f" d="M 78.597656 0.167969 L 78.597656 32.386719 L 83.730469 32.386719 L 83.730469 0.167969 Z M 78.597656 0.167969 " fill-opacity="1" fill-rule="nonzero"/></g></g><g clip-path="url(#f921f595a0)"><path fill="#3b291f" d="M 77.917969 24.804688 C 69.46875 36.054688 120.792969 37.875 90.382812 60.054688 C 113.199219 39.3125 62.074219 38.1875 77.917969 24.804688 Z M 77.917969 24.804688 " fill-opacity="1" fill-rule="evenodd"/></g><path fill="#3b291f" d="M 74.378906 30.753906 C 76.519531 39.871094 100.476562 40.996094 94.113281 54.878906 C 94.328125 43.253906 70.179688 42.476562 74.378906 30.753906 Z M 74.378906 30.753906 " fill-opacity="1" fill-rule="evenodd"/><g clip-path="url(#200aa37bc1)"><path fill="#3b291f" d="M 35.523438 109.238281 C 35.550781 109.421875 35.441406 109.507812 35.355469 109.136719 C 35.300781 108.917969 35.171875 108.628906 34.957031 108.371094 C 34.855469 108.246094 34.753906 108.140625 34.65625 108.058594 C 34.558594 107.972656 34.464844 107.90625 34.371094 107.859375 C 34.484375 107.890625 34.601562 107.953125 34.726562 108.046875 C 34.851562 108.136719 34.980469 108.257812 35.109375 108.417969 C 35.230469 108.558594 35.320312 108.707031 35.390625 108.851562 C 35.460938 108.992188 35.507812 109.125 35.523438 109.238281 Z M 37.238281 110.363281 C 37.164062 110.511719 37.019531 110.515625 37.148438 110.191406 C 37.226562 110.003906 37.257812 109.714844 37.214844 109.414062 C 37.171875 109.125 37.082031 108.90625 36.972656 108.746094 C 37.128906 108.90625 37.265625 109.15625 37.320312 109.527344 C 37.378906 109.859375 37.324219 110.179688 37.238281 110.363281 Z M 36.824219 108.496094 C 37.054688 108.648438 37.277344 108.886719 37.441406 109.15625 C 37.519531 109.292969 37.585938 109.433594 37.628906 109.582031 C 37.667969 109.734375 37.679688 109.890625 37.664062 110.042969 C 37.597656 110.585938 37.242188 110.792969 36.933594 110.679688 C 36.628906 110.570312 36.386719 110.132812 36.636719 109.496094 C 36.734375 109.246094 36.976562 108.996094 36.824219 108.496094 Z M 39.558594 112.722656 C 39.480469 112.921875 39.292969 112.9375 39.425781 112.515625 C 39.460938 112.394531 39.484375 112.238281 39.484375 112.070312 C 39.488281 111.898438 39.46875 111.710938 39.425781 111.523438 C 39.382812 111.347656 39.328125 111.1875 39.261719 111.050781 C 39.199219 110.914062 39.121094 110.804688 39.042969 110.710938 C 39.265625 110.886719 39.460938 111.199219 39.578125 111.65625 C 39.679688 112.074219 39.65625 112.476562 39.558594 112.722656 Z M 38.832031 110.410156 C 38.984375 110.492188 39.136719 110.605469 39.28125 110.734375 C 39.429688 110.859375 39.5625 111.011719 39.683594 111.171875 C 39.917969 111.496094 40.082031 111.871094 40.066406 112.269531 C 40.046875 112.964844 39.609375 113.269531 39.203125 113.160156 C 38.800781 113.050781 38.441406 112.527344 38.695312 111.691406 C 38.796875 111.367188 39.074219 111.023438 38.832031 110.410156 Z M 42.394531 114.777344 C 42.332031 115.03125 42.105469 115.078125 42.203125 114.550781 C 42.257812 114.246094 42.230469 113.792969 42.070312 113.355469 C 42 113.144531 41.910156 112.964844 41.816406 112.8125 C 41.726562 112.65625 41.621094 112.527344 41.515625 112.429688 C 41.660156 112.519531 41.796875 112.652344 41.925781 112.828125 C 42.054688 113 42.167969 113.226562 42.269531 113.492188 C 42.445312 113.980469 42.476562 114.472656 42.394531 114.777344 Z M 41.226562 112.09375 C 41.417969 112.175781 41.613281 112.289062 41.804688 112.421875 C 41.992188 112.558594 42.179688 112.710938 42.339844 112.890625 C 42.5 113.070312 42.644531 113.261719 42.746094 113.476562 C 42.855469 113.683594 42.925781 113.910156 42.945312 114.152344 C 42.976562 114.574219 42.882812 114.894531 42.707031 115.101562 C 42.535156 115.304688 42.28125 115.398438 42.027344 115.359375 C 41.511719 115.296875 41.007812 114.695312 41.210938 113.664062 C 41.253906 113.457031 41.347656 113.242188 41.386719 112.988281 C 41.425781 112.738281 41.402344 112.449219 41.226562 112.09375 Z M 45.765625 116.34375 C 45.742188 116.652344 45.488281 116.753906 45.492188 116.121094 C 45.496094 115.9375 45.464844 115.71875 45.40625 115.480469 C 45.34375 115.246094 45.246094 115.007812 45.121094 114.761719 C 44.882812 114.304688 44.617188 113.988281 44.347656 113.792969 C 44.519531 113.878906 44.699219 113.996094 44.871094 114.179688 C 44.957031 114.269531 45.042969 114.367188 45.128906 114.488281 C 45.210938 114.605469 45.292969 114.738281 45.375 114.878906 C 45.660156 115.40625 45.792969 115.964844 45.765625 116.34375 Z M 43.964844 113.457031 C 44.429688 113.574219 44.925781 113.832031 45.351562 114.167969 C 45.453125 114.257812 45.554688 114.347656 45.648438 114.445312 C 45.742188 114.539062 45.832031 114.648438 45.910156 114.757812 C 46.066406 114.972656 46.191406 115.226562 46.261719 115.496094 C 46.390625 115.96875 46.355469 116.367188 46.199219 116.644531 C 46.046875 116.921875 45.765625 117.089844 45.457031 117.101562 C 44.835938 117.136719 44.113281 116.523438 44.1875 115.28125 C 44.21875 114.785156 44.476562 114.214844 43.964844 113.457031 Z M 49.640625 117 C 49.679688 117.171875 49.640625 117.308594 49.5625 117.316406 C 49.484375 117.320312 49.367188 117.195312 49.273438 116.84375 C 49.21875 116.636719 49.117188 116.402344 48.984375 116.160156 C 48.917969 116.039062 48.839844 115.925781 48.757812 115.800781 C 48.675781 115.679688 48.585938 115.558594 48.488281 115.445312 C 48.394531 115.339844 48.304688 115.234375 48.214844 115.144531 C 48.125 115.054688 48.039062 114.972656 47.953125 114.90625 C 47.78125 114.757812 47.613281 114.65625 47.449219 114.582031 C 47.851562 114.660156 48.289062 114.957031 48.78125 115.503906 C 48.894531 115.632812 48.996094 115.753906 49.089844 115.886719 C 49.183594 116.015625 49.269531 116.152344 49.34375 116.28125 C 49.492188 116.535156 49.597656 116.789062 49.640625 117 Z M 46.984375 114.296875 C 47.496094 114.320312 48.0625 114.464844 48.574219 114.71875 C 48.699219 114.777344 48.828125 114.855469 48.949219 114.933594 C 49.070312 115.007812 49.1875 115.097656 49.300781 115.195312 C 49.410156 115.292969 49.515625 115.394531 49.617188 115.511719 C 49.71875 115.625 49.800781 115.757812 49.902344 115.894531 C 50.230469 116.378906 50.308594 116.832031 50.222656 117.191406 C 50.179688 117.371094 50.097656 117.527344 49.984375 117.65625 C 49.929688 117.71875 49.867188 117.777344 49.792969 117.824219 C 49.722656 117.871094 49.640625 117.910156 49.554688 117.9375 C 49.382812 117.996094 49.1875 118.019531 48.988281 117.984375 C 48.789062 117.953125 48.585938 117.882812 48.402344 117.742188 C 48.027344 117.480469 47.71875 116.996094 47.605469 116.292969 C 47.5625 116.011719 47.585938 115.691406 47.523438 115.351562 C 47.460938 115.019531 47.320312 114.660156 46.984375 114.296875 Z M 53.980469 116.910156 C 54.066406 117.300781 53.792969 117.535156 53.542969 116.738281 C 53.398438 116.273438 53.011719 115.691406 52.421875 115.226562 C 51.859375 114.78125 51.304688 114.546875 50.824219 114.464844 C 51.386719 114.457031 52.09375 114.683594 52.820312 115.257812 C 53.472656 115.773438 53.875 116.425781 53.980469 116.910156 Z M 58.6875 116.796875 C 58.777344 117.234375 58.46875 117.492188 58.203125 116.597656 C 58.046875 116.074219 57.628906 115.417969 56.976562 114.886719 C 56.351562 114.382812 55.738281 114.109375 55.199219 114.011719 C 55.832031 114.011719 56.617188 114.277344 57.417969 114.929688 C 58.140625 115.515625 58.578125 116.257812 58.6875 116.796875 Z M 63.835938 116.660156 C 63.925781 117.148438 63.582031 117.425781 63.300781 116.4375 C 63.136719 115.855469 62.675781 115.121094 61.960938 114.527344 C 61.28125 113.960938 60.605469 113.652344 60.011719 113.539062 C 60.710938 113.546875 61.578125 113.847656 62.453125 114.578125 C 63.246094 115.234375 63.71875 116.0625 63.835938 116.660156 Z M 69.507812 116.5 C 69.605469 117.035156 69.222656 117.332031 68.925781 116.246094 C 68.75 115.609375 68.257812 114.800781 67.484375 114.140625 C 66.738281 113.511719 66.003906 113.167969 65.351562 113.035156 C 66.117188 113.050781 67.066406 113.390625 68.019531 114.199219 C 68.878906 114.929688 69.390625 115.839844 69.507812 116.5 Z M 75.835938 116.300781 C 75.9375 116.886719 75.519531 117.207031 75.207031 116.023438 C 75.023438 115.328125 74.496094 114.441406 73.652344 113.71875 C 72.855469 113.027344 72.054688 112.648438 71.347656 112.5 C 72.183594 112.523438 73.210938 112.902344 74.242188 113.789062 C 75.167969 114.589844 75.714844 115.582031 75.835938 116.300781 Z M 70.292969 112.199219 C 72.347656 111.882812 75.285156 112.539062 76.40625 114.464844 C 78.386719 117.855469 73.722656 119.878906 72.199219 115.292969 C 71.898438 114.386719 71.992188 113.140625 70.292969 112.199219 Z M 83.128906 116.148438 C 83.148438 116.46875 83.027344 116.703125 82.878906 116.695312 C 82.730469 116.683594 82.550781 116.4375 82.40625 115.785156 C 82.320312 115.402344 82.128906 114.964844 81.808594 114.523438 C 81.457031 114.085938 81.117188 113.652344 80.660156 113.253906 C 79.800781 112.503906 78.941406 112.085938 78.179688 111.921875 C 79.082031 111.953125 80.1875 112.367188 81.292969 113.335938 C 81.355469 113.390625 81.417969 113.445312 81.476562 113.5 C 81.550781 113.558594 81.621094 113.617188 81.691406 113.675781 C 81.828125 113.789062 81.953125 113.90625 82.066406 114.03125 C 82.300781 114.273438 82.492188 114.523438 82.644531 114.773438 C 82.949219 115.269531 83.101562 115.757812 83.128906 116.148438 Z M 77.039062 111.589844 C 78.152344 111.425781 79.5 111.523438 80.71875 111.929688 C 80.871094 111.976562 81.023438 112.035156 81.167969 112.09375 C 81.324219 112.152344 81.441406 112.214844 81.648438 112.289062 C 82.023438 112.429688 82.375 112.605469 82.691406 112.804688 C 83.328125 113.199219 83.824219 113.707031 84.117188 114.28125 C 84.371094 114.785156 84.464844 115.253906 84.457031 115.65625 C 84.449219 116.0625 84.339844 116.417969 84.175781 116.710938 C 83.839844 117.300781 83.296875 117.675781 82.703125 117.8125 C 82.554688 117.84375 82.402344 117.867188 82.246094 117.867188 C 82.089844 117.875 81.929688 117.859375 81.769531 117.832031 C 81.445312 117.773438 81.09375 117.644531 80.761719 117.425781 C 80.09375 116.984375 79.476562 116.1875 79.074219 114.945312 C 78.757812 113.96875 78.867188 112.621094 77.039062 111.589844 Z M 36.015625 111.300781 C 36.160156 111.265625 36.183594 111.144531 35.878906 111.179688 C 35.699219 111.195312 35.433594 111.152344 35.167969 111.007812 C 34.921875 110.867188 34.734375 110.707031 34.628906 110.535156 C 34.671875 110.640625 34.75 110.746094 34.851562 110.851562 C 34.957031 110.953125 35.085938 111.058594 35.25 111.144531 C 35.546875 111.300781 35.835938 111.34375 36.015625 111.300781 Z M 34.445312 110.289062 C 34.574219 110.839844 35.085938 111.519531 35.667969 111.605469 C 36.175781 111.679688 36.394531 111.382812 36.347656 111.097656 C 36.320312 110.957031 36.234375 110.808594 36.074219 110.699219 C 35.910156 110.59375 35.683594 110.523438 35.375 110.523438 C 35.132812 110.527344 34.847656 110.652344 34.445312 110.289062 Z M 38.46875 113.90625 C 38.632812 113.828125 38.628906 113.664062 38.273438 113.796875 C 38.0625 113.878906 37.730469 113.902344 37.382812 113.800781 C 37.042969 113.710938 36.785156 113.554688 36.605469 113.390625 C 36.691406 113.5 36.8125 113.609375 36.960938 113.707031 C 37.113281 113.804688 37.300781 113.886719 37.515625 113.945312 C 37.910156 114.050781 38.269531 114.003906 38.46875 113.90625 Z M 36.324219 113.144531 C 36.402344 113.300781 36.507812 113.460938 36.636719 113.609375 C 36.765625 113.761719 36.914062 113.90625 37.078125 114.023438 C 37.402344 114.265625 37.785156 114.414062 38.136719 114.382812 C 38.730469 114.332031 38.902344 113.914062 38.773438 113.578125 C 38.707031 113.40625 38.566406 113.257812 38.351562 113.171875 C 38.136719 113.082031 37.847656 113.0625 37.488281 113.152344 C 37.34375 113.191406 37.199219 113.265625 37.015625 113.296875 C 36.832031 113.320312 36.609375 113.308594 36.324219 113.144531 Z M 41.492188 116.214844 C 41.65625 116.074219 41.609375 115.886719 41.230469 116.136719 C 41.003906 116.285156 40.632812 116.390625 40.191406 116.363281 C 39.980469 116.351562 39.792969 116.308594 39.625 116.257812 C 39.453125 116.207031 39.304688 116.136719 39.183594 116.054688 C 39.308594 116.167969 39.476562 116.269531 39.679688 116.347656 C 39.78125 116.386719 39.890625 116.421875 40.007812 116.449219 C 40.128906 116.472656 40.253906 116.488281 40.390625 116.496094 C 40.875 116.527344 41.285156 116.382812 41.492188 116.214844 Z M 38.789062 115.835938 C 38.917969 116 39.085938 116.164062 39.269531 116.316406 C 39.460938 116.460938 39.675781 116.597656 39.894531 116.699219 C 40.121094 116.800781 40.351562 116.875 40.578125 116.910156 C 40.808594 116.9375 41.03125 116.925781 41.234375 116.863281 C 41.558594 116.769531 41.742188 116.578125 41.8125 116.375 C 41.882812 116.171875 41.847656 115.945312 41.730469 115.761719 C 41.671875 115.667969 41.59375 115.589844 41.496094 115.523438 C 41.398438 115.457031 41.28125 115.40625 41.148438 115.382812 C 40.882812 115.335938 40.546875 115.375 40.152344 115.566406 C 39.992188 115.644531 39.839844 115.769531 39.632812 115.847656 C 39.425781 115.925781 39.167969 115.953125 38.789062 115.835938 Z M 45.171875 118.050781 C 45.320312 117.847656 45.210938 117.648438 44.851562 118.035156 C 44.746094 118.148438 44.59375 118.261719 44.402344 118.359375 C 44.210938 118.453125 43.984375 118.527344 43.722656 118.566406 C 43.230469 118.636719 42.792969 118.582031 42.460938 118.449219 C 42.640625 118.550781 42.859375 118.636719 43.121094 118.675781 C 43.25 118.695312 43.390625 118.707031 43.535156 118.710938 C 43.679688 118.710938 43.835938 118.695312 43.992188 118.667969 C 44.136719 118.648438 44.269531 118.613281 44.390625 118.570312 C 44.515625 118.527344 44.628906 118.476562 44.730469 118.417969 C 44.929688 118.308594 45.082031 118.175781 45.171875 118.050781 Z M 41.945312 118.285156 C 42.136719 118.453125 42.378906 118.597656 42.640625 118.730469 C 42.902344 118.859375 43.191406 118.960938 43.480469 119.027344 C 43.773438 119.085938 44.0625 119.117188 44.34375 119.089844 C 44.621094 119.0625 44.871094 118.992188 45.085938 118.863281 C 45.421875 118.664062 45.5625 118.402344 45.574219 118.152344 C 45.589844 117.898438 45.476562 117.664062 45.292969 117.480469 C 44.914062 117.132812 44.246094 117.03125 43.449219 117.660156 C 43.285156 117.789062 43.144531 117.972656 42.925781 118.109375 C 42.816406 118.179688 42.691406 118.238281 42.53125 118.269531 C 42.371094 118.304688 42.175781 118.320312 41.945312 118.285156 Z M 49.648438 118.9375 C 49.722656 118.664062 49.523438 118.488281 49.277344 119.046875 C 49.238281 119.128906 49.191406 119.214844 49.125 119.300781 C 49.0625 119.386719 48.984375 119.472656 48.894531 119.558594 C 48.804688 119.644531 48.699219 119.726562 48.582031 119.808594 C 48.464844 119.886719 48.335938 119.960938 48.195312 120.023438 C 47.648438 120.269531 47.117188 120.339844 46.679688 120.292969 C 46.925781 120.359375 47.222656 120.371094 47.539062 120.34375 C 47.695312 120.324219 47.863281 120.289062 48.03125 120.242188 C 48.203125 120.195312 48.375 120.132812 48.546875 120.046875 C 49.175781 119.746094 49.542969 119.277344 49.648438 118.9375 Z M 46.019531 120.253906 C 46.589844 120.507812 47.355469 120.675781 48.09375 120.609375 C 48.277344 120.601562 48.460938 120.570312 48.632812 120.53125 C 48.808594 120.492188 48.972656 120.445312 49.128906 120.378906 C 49.285156 120.3125 49.429688 120.234375 49.554688 120.148438 C 49.621094 120.105469 49.679688 120.058594 49.734375 120.007812 C 49.765625 119.984375 49.792969 119.957031 49.816406 119.929688 C 49.835938 119.90625 49.855469 119.878906 49.875 119.847656 C 50.109375 119.519531 50.15625 119.191406 50.078125 118.914062 C 50.042969 118.777344 49.972656 118.652344 49.882812 118.550781 C 49.859375 118.523438 49.835938 118.5 49.8125 118.476562 C 49.785156 118.453125 49.753906 118.429688 49.722656 118.40625 C 49.664062 118.363281 49.597656 118.328125 49.53125 118.296875 C 49.394531 118.234375 49.242188 118.207031 49.082031 118.195312 C 48.925781 118.183594 48.757812 118.207031 48.585938 118.269531 C 48.414062 118.324219 48.238281 118.417969 48.0625 118.558594 C 47.886719 118.699219 47.710938 118.882812 47.539062 119.117188 C 47.402344 119.308594 47.304688 119.550781 47.101562 119.773438 C 47 119.886719 46.871094 119.988281 46.699219 120.070312 C 46.527344 120.15625 46.304688 120.222656 46.019531 120.253906 Z M 54.039062 119.011719 C 54.109375 118.695312 53.890625 118.511719 53.6875 119.148438 C 53.566406 119.523438 53.253906 119.988281 52.773438 120.363281 C 52.320312 120.71875 51.875 120.90625 51.484375 120.96875 C 51.941406 120.976562 52.507812 120.796875 53.097656 120.339844 C 53.625 119.925781 53.953125 119.398438 54.039062 119.011719 Z M 50.902344 121.105469 C 52.011719 121.332031 53.628906 121.042969 54.292969 120.027344 C 55.285156 118.554688 52.960938 117.105469 52.03125 119.472656 C 51.839844 119.953125 51.851562 120.636719 50.902344 121.105469 Z M 58.78125 119.09375 C 58.851562 118.742188 58.605469 118.539062 58.390625 119.253906 C 58.265625 119.671875 57.925781 120.195312 57.402344 120.617188 C 56.902344 121.019531 56.410156 121.234375 55.980469 121.308594 C 56.484375 121.3125 57.113281 121.105469 57.757812 120.585938 C 58.335938 120.121094 58.6875 119.527344 58.78125 119.09375 Z M 55.332031 121.472656 C 56.566406 121.707031 58.359375 121.363281 59.082031 120.21875 C 60.136719 118.589844 57.542969 117.003906 56.554688 119.636719 C 56.351562 120.179688 56.378906 120.933594 55.332031 121.472656 Z M 63.964844 119.195312 C 64.039062 118.808594 63.761719 118.589844 63.539062 119.375 C 63.40625 119.835938 63.039062 120.417969 62.46875 120.890625 C 61.925781 121.339844 61.386719 121.585938 60.914062 121.671875 C 61.46875 121.667969 62.160156 121.433594 62.863281 120.851562 C 63.492188 120.328125 63.871094 119.671875 63.964844 119.195312 Z M 60.207031 121.863281 C 61.566406 122.101562 63.539062 121.699219 64.316406 120.429688 C 65.433594 118.644531 62.566406 116.914062 61.523438 119.824219 C 61.308594 120.421875 61.351562 121.253906 60.207031 121.863281 Z M 69.683594 119.320312 C 69.761719 118.894531 69.457031 118.65625 69.222656 119.519531 C 69.082031 120.023438 68.691406 120.664062 68.074219 121.183594 C 67.484375 121.683594 66.902344 121.953125 66.386719 122.054688 C 66.996094 122.046875 67.746094 121.777344 68.5 121.140625 C 69.183594 120.5625 69.589844 119.84375 69.683594 119.320312 Z M 65.617188 122.265625 C 67.109375 122.515625 69.253906 122.054688 70.082031 120.664062 C 71.261719 118.71875 68.125 116.851562 67.027344 120.03125 C 66.800781 120.6875 66.859375 121.59375 65.617188 122.265625 Z M 76.074219 119.472656 C 76.152344 119.007812 75.820312 118.753906 75.570312 119.691406 C 75.425781 120.238281 75.007812 120.9375 74.34375 121.507812 C 73.710938 122.050781 73.082031 122.351562 72.523438 122.46875 C 73.179688 122.449219 73.992188 122.152344 74.808594 121.453125 C 75.542969 120.824219 75.976562 120.039062 76.074219 119.472656 Z M 71.691406 122.707031 C 73.3125 122.957031 75.628906 122.441406 76.519531 120.921875 C 77.757812 118.824219 74.351562 116.8125 73.199219 120.265625 C 72.957031 120.976562 73.027344 121.964844 71.691406 122.707031 Z M 82.996094 119.75 C 83.0625 119.507812 83.03125 119.3125 82.933594 119.292969 C 82.839844 119.277344 82.683594 119.449219 82.535156 119.945312 C 82.359375 120.519531 81.964844 121.246094 81.460938 121.863281 C 80.785156 122.453125 80.105469 122.78125 79.503906 122.910156 C 79.859375 122.902344 80.257812 122.8125 80.671875 122.632812 C 80.878906 122.542969 81.09375 122.429688 81.308594 122.292969 C 81.359375 122.257812 81.417969 122.222656 81.46875 122.183594 C 81.503906 122.148438 81.542969 122.109375 81.582031 122.070312 C 81.65625 121.988281 81.734375 121.898438 81.8125 121.808594 C 81.957031 121.644531 82.089844 121.464844 82.214844 121.289062 C 82.339844 121.109375 82.453125 120.929688 82.554688 120.753906 C 82.761719 120.394531 82.917969 120.050781 82.996094 119.75 Z M 78.613281 123.171875 C 79.046875 123.238281 79.53125 123.253906 80.027344 123.210938 C 80.273438 123.1875 80.523438 123.152344 80.773438 123.101562 C 80.894531 123.078125 81.019531 123.050781 81.140625 123.015625 C 81.203125 123 81.265625 122.984375 81.324219 122.964844 L 81.414062 122.9375 L 81.460938 122.925781 L 81.492188 122.910156 C 82.109375 122.59375 82.675781 122.105469 83.136719 121.351562 C 83.449219 120.835938 83.589844 120.292969 83.527344 119.8125 C 83.46875 119.332031 83.199219 118.921875 82.808594 118.703125 C 82.421875 118.480469 81.914062 118.464844 81.464844 118.75 C 80.972656 119.039062 80.515625 119.601562 80.210938 120.53125 C 79.964844 121.304688 80.046875 122.363281 78.613281 123.171875 Z M 34.101562 107.695312 C 34.382812 107.71875 34.703125 107.828125 34.992188 107.996094 C 35.140625 108.082031 35.269531 108.183594 35.390625 108.300781 C 35.507812 108.414062 35.605469 108.550781 35.675781 108.703125 C 35.78125 108.917969 35.8125 109.109375 35.796875 109.265625 C 35.785156 109.425781 35.722656 109.550781 35.628906 109.628906 C 35.628906 109.628906 35.675781 109.695312 35.761719 109.824219 C 35.847656 109.949219 35.980469 110.125 36.148438 110.355469 C 36.488281 110.808594 37 111.433594 37.664062 112.132812 C 38.332031 112.828125 39.160156 113.59375 40.113281 114.332031 C 40.585938 114.699219 41.101562 115.054688 41.632812 115.398438 C 42.164062 115.742188 42.726562 116.0625 43.300781 116.359375 C 44.449219 116.945312 45.671875 117.410156 46.867188 117.695312 C 47.460938 117.84375 48.054688 117.933594 48.617188 118 C 48.898438 118.019531 49.175781 118.050781 49.445312 118.050781 C 49.578125 118.050781 49.707031 118.054688 49.835938 118.058594 C 49.957031 118.058594 50.078125 118.058594 50.191406 118.058594 C 52.050781 118.050781 53.289062 118.050781 53.289062 118.050781 C 52.648438 117.988281 51.933594 117.484375 51.488281 116.328125 C 51.257812 115.726562 51.277344 114.878906 50.097656 114.292969 C 51.476562 114.019531 53.480469 114.382812 54.304688 115.652344 C 55.125 116.921875 54.488281 117.953125 53.566406 118.050781 L 57.746094 118.039062 C 57.070312 117.898438 56.355469 117.316406 55.910156 116.109375 C 55.664062 115.433594 55.699219 114.484375 54.394531 113.808594 C 55.941406 113.523438 58.179688 113.960938 59.074219 115.394531 C 59.914062 116.738281 59.324219 117.828125 58.394531 118.035156 L 62.78125 118.023438 C 62.03125 117.863281 61.246094 117.210938 60.769531 115.863281 C 60.5 115.113281 60.558594 114.066406 59.121094 113.300781 C 60.835938 113.003906 63.308594 113.515625 64.28125 115.113281 C 65.183594 116.597656 64.535156 117.785156 63.519531 118.023438 L 68.476562 118.007812 C 67.617188 117.878906 66.691406 117.160156 66.152344 115.597656 C 65.871094 114.765625 65.945312 113.621094 64.382812 112.765625 C 66.261719 112.460938 68.96875 113.042969 70.015625 114.804688 C 71.019531 116.492188 70.214844 117.820312 69.042969 118.007812 C 69.042969 118.007812 70.78125 118.003906 73.390625 117.996094 C 74.695312 117.992188 76.214844 117.988281 77.847656 117.984375 C 78.664062 117.980469 79.503906 117.980469 80.359375 117.976562 C 80.574219 117.976562 80.789062 117.976562 81.003906 117.976562 C 81.21875 117.976562 81.441406 117.972656 81.644531 117.976562 C 82.058594 117.980469 82.472656 118 82.886719 118.042969 C 83.707031 118.125 84.519531 118.285156 85.28125 118.535156 C 86.046875 118.78125 86.769531 119.117188 87.417969 119.519531 C 88.070312 119.917969 88.65625 120.382812 89.175781 120.867188 C 89.695312 121.351562 90.144531 121.859375 90.546875 122.347656 C 91.351562 123.332031 91.953125 124.234375 92.558594 124.851562 C 92.851562 125.148438 93.125 125.339844 93.332031 125.421875 C 93.433594 125.464844 93.515625 125.484375 93.570312 125.496094 C 93.625 125.503906 93.652344 125.507812 93.652344 125.507812 L 93.433594 125.820312 C 93.433594 125.820312 93.414062 125.816406 93.382812 125.8125 C 93.351562 125.804688 93.300781 125.792969 93.238281 125.773438 C 93.109375 125.734375 92.921875 125.644531 92.707031 125.480469 C 92.496094 125.320312 92.257812 125.085938 92 124.789062 C 91.753906 124.503906 91.507812 124.179688 91.246094 123.832031 C 90.71875 123.132812 90.121094 122.320312 89.339844 121.507812 C 88.5625 120.703125 87.589844 119.902344 86.375 119.316406 C 85.164062 118.722656 83.714844 118.359375 82.125 118.285156 C 81.925781 118.273438 81.722656 118.269531 81.523438 118.269531 C 81.308594 118.265625 81.09375 118.265625 80.875 118.265625 C 80.4375 118.265625 79.996094 118.261719 79.550781 118.261719 C 78.65625 118.257812 77.742188 118.257812 76.8125 118.253906 C 73.097656 118.246094 69.136719 118.234375 65.175781 118.222656 C 61.214844 118.210938 57.25 118.203125 53.535156 118.191406 C 52.609375 118.191406 51.695312 118.1875 50.800781 118.183594 C 50.578125 118.183594 50.355469 118.183594 50.132812 118.183594 C 50.023438 118.183594 49.914062 118.183594 49.804688 118.183594 C 49.683594 118.179688 49.566406 118.175781 49.449219 118.171875 C 48.976562 118.160156 48.511719 118.109375 48.058594 118.042969 C 46.25 117.773438 44.640625 117.152344 43.261719 116.4375 C 41.878906 115.71875 40.703125 114.910156 39.730469 114.117188 C 38.753906 113.328125 37.976562 112.550781 37.367188 111.886719 C 36.757812 111.222656 36.320312 110.65625 36.03125 110.265625 C 35.890625 110.066406 35.777344 109.917969 35.710938 109.8125 C 35.640625 109.707031 35.601562 109.652344 35.601562 109.652344 C 35.460938 109.753906 35.257812 109.757812 35.054688 109.628906 C 34.957031 109.558594 34.859375 109.460938 34.769531 109.320312 C 34.679688 109.183594 34.605469 109.003906 34.546875 108.789062 C 34.476562 108.484375 34.519531 108.109375 34.101562 107.695312 " fill-opacity="1" fill-rule="evenodd"/></g><g clip-path="url(#f6d9b36292)"><path fill="#3b291f" d="M 151.472656 108.851562 C 151.542969 108.707031 151.632812 108.558594 151.753906 108.417969 C 151.882812 108.257812 152.011719 108.136719 152.136719 108.046875 C 152.265625 107.953125 152.382812 107.890625 152.492188 107.859375 C 152.398438 107.90625 152.304688 107.972656 152.207031 108.058594 C 152.109375 108.140625 152.007812 108.246094 151.90625 108.371094 C 151.691406 108.628906 151.5625 108.917969 151.507812 109.136719 C 151.421875 109.507812 151.3125 109.421875 151.339844 109.238281 C 151.355469 109.125 151.402344 108.992188 151.472656 108.851562 Z M 149.542969 109.527344 C 149.597656 109.15625 149.734375 108.90625 149.890625 108.746094 C 149.78125 108.90625 149.691406 109.125 149.648438 109.414062 C 149.605469 109.714844 149.636719 110.003906 149.714844 110.191406 C 149.84375 110.515625 149.699219 110.511719 149.625 110.363281 C 149.539062 110.179688 149.484375 109.859375 149.542969 109.527344 Z M 150.226562 109.496094 C 150.476562 110.132812 150.234375 110.570312 149.929688 110.679688 C 149.621094 110.792969 149.265625 110.585938 149.199219 110.042969 C 149.183594 109.890625 149.195312 109.734375 149.234375 109.582031 C 149.277344 109.433594 149.34375 109.292969 149.421875 109.15625 C 149.585938 108.886719 149.808594 108.648438 150.039062 108.496094 C 149.886719 108.996094 150.128906 109.246094 150.226562 109.496094 Z M 147.285156 111.65625 C 147.402344 111.199219 147.597656 110.886719 147.820312 110.710938 C 147.742188 110.804688 147.664062 110.914062 147.601562 111.050781 C 147.535156 111.1875 147.484375 111.347656 147.4375 111.523438 C 147.394531 111.710938 147.375 111.898438 147.378906 112.070312 C 147.378906 112.238281 147.402344 112.394531 147.441406 112.515625 C 147.570312 112.9375 147.382812 112.921875 147.304688 112.722656 C 147.207031 112.476562 147.183594 112.074219 147.285156 111.65625 Z M 148.167969 111.691406 C 148.421875 112.527344 148.0625 113.050781 147.660156 113.160156 C 147.253906 113.269531 146.816406 112.964844 146.796875 112.269531 C 146.78125 111.871094 146.945312 111.496094 147.179688 111.171875 C 147.300781 111.011719 147.433594 110.859375 147.582031 110.734375 C 147.726562 110.605469 147.878906 110.492188 148.03125 110.410156 C 147.792969 111.023438 148.066406 111.367188 148.167969 111.691406 Z M 144.59375 113.492188 C 144.695312 113.226562 144.808594 113 144.9375 112.828125 C 145.066406 112.652344 145.203125 112.519531 145.347656 112.429688 C 145.242188 112.527344 145.136719 112.65625 145.046875 112.8125 C 144.953125 112.964844 144.867188 113.144531 144.792969 113.355469 C 144.632812 113.792969 144.605469 114.246094 144.664062 114.550781 C 144.757812 115.078125 144.53125 115.03125 144.46875 114.777344 C 144.386719 114.472656 144.417969 113.980469 144.59375 113.492188 Z M 145.476562 112.988281 C 145.515625 113.242188 145.609375 113.457031 145.652344 113.664062 C 145.859375 114.695312 145.351562 115.296875 144.835938 115.359375 C 144.585938 115.398438 144.328125 115.304688 144.15625 115.101562 C 143.980469 114.894531 143.886719 114.574219 143.917969 114.152344 C 143.9375 113.910156 144.007812 113.683594 144.117188 113.476562 C 144.21875 113.261719 144.363281 113.070312 144.523438 112.890625 C 144.683594 112.710938 144.871094 112.558594 145.058594 112.421875 C 145.25 112.289062 145.445312 112.175781 145.636719 112.09375 C 145.460938 112.449219 145.4375 112.738281 145.476562 112.988281 Z M 141.488281 114.878906 C 141.570312 114.738281 141.652344 114.605469 141.734375 114.488281 C 141.820312 114.367188 141.90625 114.269531 141.992188 114.179688 C 142.164062 113.996094 142.34375 113.878906 142.515625 113.792969 C 142.246094 113.988281 141.980469 114.304688 141.742188 114.761719 C 141.617188 115.007812 141.519531 115.246094 141.460938 115.480469 C 141.398438 115.71875 141.367188 115.9375 141.371094 116.121094 C 141.375 116.753906 141.121094 116.652344 141.097656 116.34375 C 141.070312 115.964844 141.203125 115.40625 141.488281 114.878906 Z M 142.679688 115.28125 C 142.753906 116.523438 142.027344 117.136719 141.40625 117.101562 C 141.097656 117.089844 140.816406 116.921875 140.664062 116.644531 C 140.507812 116.367188 140.476562 115.96875 140.601562 115.496094 C 140.671875 115.226562 140.796875 114.972656 140.953125 114.757812 C 141.035156 114.648438 141.121094 114.539062 141.214844 114.445312 C 141.308594 114.347656 141.410156 114.257812 141.515625 114.167969 C 141.9375 113.832031 142.433594 113.574219 142.898438 113.457031 C 142.386719 114.214844 142.644531 114.785156 142.679688 115.28125 Z M 137.519531 116.28125 C 137.59375 116.152344 137.679688 116.015625 137.773438 115.886719 C 137.867188 115.753906 137.96875 115.632812 138.082031 115.503906 C 138.574219 114.957031 139.011719 114.660156 139.414062 114.582031 C 139.25 114.65625 139.082031 114.757812 138.910156 114.90625 C 138.824219 114.972656 138.738281 115.054688 138.648438 115.144531 C 138.558594 115.238281 138.46875 115.339844 138.375 115.445312 C 138.277344 115.558594 138.1875 115.679688 138.105469 115.800781 C 138.023438 115.925781 137.949219 116.039062 137.878906 116.160156 C 137.746094 116.402344 137.644531 116.636719 137.589844 116.84375 C 137.496094 117.195312 137.378906 117.320312 137.300781 117.316406 C 137.222656 117.308594 137.183594 117.171875 137.222656 117 C 137.265625 116.789062 137.371094 116.535156 137.519531 116.28125 Z M 139.339844 115.351562 C 139.28125 115.691406 139.300781 116.011719 139.257812 116.292969 C 139.144531 116.996094 138.835938 117.480469 138.460938 117.742188 C 138.277344 117.882812 138.074219 117.953125 137.875 117.984375 C 137.675781 118.019531 137.480469 117.996094 137.308594 117.9375 C 137.222656 117.910156 137.140625 117.871094 137.070312 117.824219 C 136.996094 117.777344 136.933594 117.71875 136.878906 117.65625 C 136.765625 117.527344 136.683594 117.371094 136.640625 117.191406 C 136.554688 116.832031 136.632812 116.378906 136.960938 115.894531 C 137.0625 115.757812 137.144531 115.625 137.246094 115.511719 C 137.347656 115.394531 137.453125 115.292969 137.5625 115.195312 C 137.675781 115.097656 137.792969 115.007812 137.914062 114.933594 C 138.035156 114.855469 138.164062 114.777344 138.289062 114.71875 C 138.800781 114.464844 139.367188 114.320312 139.878906 114.296875 C 139.542969 114.660156 139.402344 115.019531 139.339844 115.351562 Z M 134.042969 115.257812 C 134.769531 114.683594 135.476562 114.457031 136.039062 114.464844 C 135.558594 114.546875 135.003906 114.78125 134.441406 115.226562 C 133.851562 115.691406 133.464844 116.273438 133.320312 116.738281 C 133.070312 117.535156 132.796875 117.300781 132.882812 116.910156 C 132.988281 116.425781 133.390625 115.773438 134.042969 115.257812 Z M 129.445312 114.929688 C 130.246094 114.277344 131.035156 114.011719 131.664062 114.011719 C 131.125 114.109375 130.511719 114.382812 129.886719 114.886719 C 129.234375 115.417969 128.816406 116.074219 128.660156 116.597656 C 128.394531 117.492188 128.085938 117.234375 128.175781 116.796875 C 128.285156 116.257812 128.722656 115.515625 129.445312 114.929688 Z M 124.410156 114.578125 C 125.285156 113.847656 126.152344 113.546875 126.851562 113.539062 C 126.257812 113.652344 125.582031 113.960938 124.902344 114.527344 C 124.1875 115.121094 123.726562 115.855469 123.5625 116.4375 C 123.28125 117.425781 122.9375 117.148438 123.027344 116.660156 C 123.144531 116.0625 123.617188 115.234375 124.410156 114.578125 Z M 118.84375 114.199219 C 119.796875 113.390625 120.746094 113.050781 121.511719 113.035156 C 120.859375 113.167969 120.125 113.511719 119.378906 114.140625 C 118.605469 114.800781 118.113281 115.609375 117.9375 116.246094 C 117.640625 117.332031 117.257812 117.035156 117.355469 116.5 C 117.472656 115.839844 117.984375 114.929688 118.84375 114.199219 Z M 112.621094 113.789062 C 113.652344 112.902344 114.679688 112.523438 115.515625 112.5 C 114.808594 112.648438 114.007812 113.027344 113.210938 113.71875 C 112.371094 114.441406 111.84375 115.328125 111.65625 116.023438 C 111.34375 117.207031 110.925781 116.886719 111.027344 116.300781 C 111.148438 115.582031 111.695312 114.589844 112.621094 113.789062 Z M 114.664062 115.292969 C 113.140625 119.878906 108.480469 117.855469 110.457031 114.464844 C 111.578125 112.539062 114.515625 111.882812 116.570312 112.199219 C 114.871094 113.140625 114.964844 114.386719 114.664062 115.292969 Z M 104.21875 114.773438 C 104.371094 114.523438 104.5625 114.273438 104.796875 114.03125 C 104.914062 113.90625 105.035156 113.789062 105.171875 113.675781 C 105.242188 113.617188 105.3125 113.558594 105.386719 113.5 C 105.445312 113.445312 105.507812 113.390625 105.570312 113.335938 C 106.675781 112.367188 107.78125 111.953125 108.683594 111.921875 C 107.921875 112.085938 107.0625 112.503906 106.203125 113.253906 C 105.746094 113.652344 105.40625 114.085938 105.054688 114.523438 C 104.734375 114.964844 104.542969 115.402344 104.460938 115.785156 C 104.3125 116.4375 104.132812 116.683594 103.984375 116.695312 C 103.835938 116.703125 103.714844 116.46875 103.734375 116.148438 C 103.761719 115.757812 103.914062 115.269531 104.21875 114.773438 Z M 107.789062 114.945312 C 107.386719 116.1875 106.769531 116.984375 106.101562 117.425781 C 105.773438 117.644531 105.417969 117.773438 105.097656 117.832031 C 104.933594 117.859375 104.773438 117.875 104.617188 117.867188 C 104.460938 117.867188 104.308594 117.84375 104.160156 117.8125 C 103.566406 117.675781 103.023438 117.300781 102.691406 116.710938 C 102.523438 116.417969 102.414062 116.0625 102.40625 115.65625 C 102.398438 115.253906 102.492188 114.785156 102.75 114.28125 C 103.039062 113.707031 103.535156 113.199219 104.171875 112.804688 C 104.488281 112.605469 104.839844 112.429688 105.214844 112.289062 C 105.421875 112.21875 105.542969 112.152344 105.695312 112.09375 C 105.84375 112.035156 105.992188 111.976562 106.144531 111.929688 C 107.363281 111.523438 108.714844 111.425781 109.824219 111.589844 C 107.996094 112.621094 108.105469 113.96875 107.789062 114.945312 Z M 151.613281 111.144531 C 151.777344 111.058594 151.90625 110.953125 152.011719 110.851562 C 152.113281 110.746094 152.191406 110.640625 152.238281 110.535156 C 152.128906 110.707031 151.941406 110.867188 151.695312 111.007812 C 151.429688 111.152344 151.164062 111.195312 150.984375 111.179688 C 150.679688 111.144531 150.703125 111.265625 150.847656 111.300781 C 151.027344 111.34375 151.316406 111.300781 151.613281 111.144531 Z M 151.488281 110.523438 C 151.179688 110.523438 150.953125 110.59375 150.789062 110.699219 C 150.628906 110.808594 150.542969 110.957031 150.515625 111.097656 C 150.46875 111.382812 150.6875 111.679688 151.199219 111.605469 C 151.777344 111.519531 152.289062 110.839844 152.417969 110.289062 C 152.015625 110.652344 151.730469 110.527344 151.488281 110.523438 Z M 149.347656 113.945312 C 149.5625 113.886719 149.75 113.804688 149.902344 113.707031 C 150.050781 113.609375 150.171875 113.5 150.257812 113.390625 C 150.078125 113.554688 149.820312 113.710938 149.480469 113.800781 C 149.132812 113.902344 148.800781 113.878906 148.589844 113.796875 C 148.234375 113.664062 148.230469 113.828125 148.394531 113.90625 C 148.59375 114.003906 148.953125 114.050781 149.347656 113.945312 Z M 149.847656 113.296875 C 149.664062 113.265625 149.519531 113.191406 149.375 113.152344 C 149.015625 113.0625 148.726562 113.082031 148.511719 113.171875 C 148.296875 113.257812 148.15625 113.40625 148.089844 113.578125 C 147.964844 113.914062 148.132812 114.332031 148.726562 114.382812 C 149.078125 114.414062 149.460938 114.265625 149.785156 114.023438 C 149.949219 113.90625 150.097656 113.761719 150.226562 113.609375 C 150.355469 113.460938 150.460938 113.300781 150.539062 113.144531 C 150.253906 113.308594 150.03125 113.320312 149.847656 113.296875 Z M 146.472656 116.496094 C 146.609375 116.488281 146.738281 116.472656 146.855469 116.449219 C 146.972656 116.421875 147.082031 116.390625 147.183594 116.347656 C 147.386719 116.269531 147.554688 116.167969 147.679688 116.054688 C 147.558594 116.136719 147.410156 116.207031 147.238281 116.257812 C 147.070312 116.308594 146.882812 116.351562 146.671875 116.363281 C 146.230469 116.390625 145.859375 116.285156 145.636719 116.136719 C 145.253906 115.886719 145.207031 116.074219 145.371094 116.214844 C 145.578125 116.382812 145.988281 116.527344 146.472656 116.496094 Z M 147.230469 115.847656 C 147.023438 115.769531 146.871094 115.644531 146.710938 115.566406 C 146.316406 115.375 145.980469 115.335938 145.714844 115.382812 C 145.582031 115.40625 145.464844 115.460938 145.367188 115.523438 C 145.269531 115.589844 145.191406 115.667969 145.132812 115.761719 C 145.015625 115.945312 144.980469 116.171875 145.050781 116.375 C 145.121094 116.578125 145.304688 116.769531 145.628906 116.863281 C 145.832031 116.925781 146.054688 116.9375 146.285156 116.910156 C 146.511719 116.875 146.742188 116.800781 146.96875 116.699219 C 147.1875 116.597656 147.402344 116.460938 147.59375 116.316406 C 147.78125 116.164062 147.945312 116 148.074219 115.835938 C 147.699219 115.953125 147.4375 115.925781 147.230469 115.847656 Z M 142.132812 118.417969 C 142.234375 118.476562 142.347656 118.527344 142.472656 118.570312 C 142.59375 118.613281 142.726562 118.648438 142.871094 118.667969 C 143.03125 118.695312 143.183594 118.710938 143.328125 118.710938 C 143.472656 118.707031 143.613281 118.695312 143.742188 118.675781 C 144.003906 118.636719 144.222656 118.550781 144.402344 118.449219 C 144.070312 118.582031 143.636719 118.636719 143.140625 118.566406 C 142.882812 118.527344 142.652344 118.453125 142.460938 118.359375 C 142.269531 118.261719 142.117188 118.148438 142.011719 118.035156 C 141.652344 117.648438 141.542969 117.847656 141.691406 118.050781 C 141.78125 118.175781 141.933594 118.308594 142.132812 118.417969 Z M 144.335938 118.269531 C 144.175781 118.238281 144.046875 118.179688 143.9375 118.109375 C 143.71875 117.972656 143.578125 117.789062 143.414062 117.660156 C 142.617188 117.03125 141.949219 117.132812 141.570312 117.480469 C 141.386719 117.664062 141.273438 117.898438 141.289062 118.152344 C 141.300781 118.402344 141.441406 118.664062 141.777344 118.863281 C 141.992188 118.992188 142.242188 119.0625 142.519531 119.089844 C 142.800781 119.117188 143.089844 119.085938 143.382812 119.027344 C 143.671875 118.960938 143.960938 118.859375 144.222656 118.730469 C 144.484375 118.597656 144.726562 118.453125 144.917969 118.285156 C 144.6875 118.320312 144.492188 118.304688 144.335938 118.269531 Z M 138.316406 120.046875 C 138.492188 120.132812 138.660156 120.195312 138.832031 120.242188 C 139 120.289062 139.167969 120.324219 139.324219 120.34375 C 139.640625 120.371094 139.9375 120.359375 140.183594 120.292969 C 139.746094 120.339844 139.214844 120.269531 138.671875 120.023438 C 138.527344 119.960938 138.398438 119.886719 138.28125 119.808594 C 138.164062 119.726562 138.058594 119.644531 137.96875 119.558594 C 137.878906 119.472656 137.800781 119.386719 137.738281 119.300781 C 137.671875 119.214844 137.625 119.128906 137.585938 119.046875 C 137.339844 118.488281 137.140625 118.664062 137.214844 118.9375 C 137.320312 119.277344 137.6875 119.746094 138.316406 120.046875 Z M 140.164062 120.070312 C 139.992188 119.988281 139.863281 119.886719 139.761719 119.773438 C 139.558594 119.550781 139.460938 119.308594 139.324219 119.117188 C 139.152344 118.882812 138.976562 118.699219 138.800781 118.558594 C 138.625 118.417969 138.449219 118.324219 138.277344 118.269531 C 138.105469 118.207031 137.9375 118.183594 137.78125 118.195312 C 137.621094 118.207031 137.46875 118.234375 137.332031 118.296875 C 137.265625 118.328125 137.199219 118.363281 137.140625 118.40625 C 137.109375 118.429688 137.078125 118.453125 137.050781 118.476562 C 137.027344 118.5 137.003906 118.523438 136.980469 118.550781 C 136.890625 118.652344 136.820312 118.777344 136.78125 118.914062 C 136.707031 119.191406 136.753906 119.519531 136.988281 119.847656 C 137.007812 119.878906 137.027344 119.90625 137.046875 119.929688 C 137.074219 119.957031 137.097656 119.984375 137.128906 120.007812 C 137.183594 120.058594 137.242188 120.105469 137.308594 120.148438 C 137.433594 120.234375 137.578125 120.3125 137.734375 120.378906 C 137.890625 120.445312 138.054688 120.492188 138.230469 120.53125 C 138.40625 120.570312 138.585938 120.601562 138.769531 120.609375 C 139.507812 120.675781 140.273438 120.507812 140.84375 120.253906 C 140.558594 120.222656 140.339844 120.15625 140.164062 120.070312 Z M 133.765625 120.339844 C 134.355469 120.796875 134.925781 120.976562 135.378906 120.96875 C 134.988281 120.90625 134.542969 120.71875 134.089844 120.363281 C 133.609375 119.988281 133.296875 119.523438 133.175781 119.148438 C 132.972656 118.511719 132.753906 118.695312 132.824219 119.011719 C 132.914062 119.398438 133.238281 119.925781 133.765625 120.339844 Z M 134.832031 119.472656 C 133.902344 117.105469 131.578125 118.554688 132.570312 120.027344 C 133.234375 121.042969 134.851562 121.332031 135.960938 121.105469 C 135.011719 120.636719 135.023438 119.953125 134.832031 119.472656 Z M 129.105469 120.585938 C 129.75 121.105469 130.378906 121.3125 130.882812 121.308594 C 130.453125 121.234375 129.960938 121.019531 129.460938 120.617188 C 128.9375 120.195312 128.597656 119.671875 128.472656 119.253906 C 128.257812 118.539062 128.011719 118.742188 128.082031 119.09375 C 128.175781 119.527344 128.527344 120.121094 129.105469 120.585938 Z M 130.308594 119.636719 C 129.324219 117.003906 126.726562 118.589844 127.78125 120.21875 C 128.503906 121.363281 130.296875 121.707031 131.53125 121.472656 C 130.484375 120.933594 130.511719 120.179688 130.308594 119.636719 Z M 124.003906 120.851562 C 124.703125 121.433594 125.394531 121.667969 125.949219 121.675781 C 125.476562 121.585938 124.9375 121.339844 124.394531 120.890625 C 123.824219 120.417969 123.457031 119.835938 123.328125 119.375 C 123.101562 118.589844 122.824219 118.808594 122.898438 119.195312 C 122.992188 119.671875 123.371094 120.328125 124.003906 120.851562 Z M 125.339844 119.824219 C 124.296875 116.914062 121.429688 118.644531 122.546875 120.429688 C 123.328125 121.699219 125.296875 122.101562 126.65625 121.863281 C 125.511719 121.253906 125.554688 120.421875 125.339844 119.824219 Z M 118.363281 121.140625 C 119.117188 121.777344 119.867188 122.046875 120.476562 122.054688 C 119.960938 121.953125 119.378906 121.683594 118.789062 121.183594 C 118.171875 120.664062 117.78125 120.023438 117.640625 119.519531 C 117.40625 118.65625 117.101562 118.894531 117.179688 119.320312 C 117.273438 119.84375 117.679688 120.5625 118.363281 121.140625 Z M 119.835938 120.03125 C 118.738281 116.851562 115.601562 118.71875 116.78125 120.664062 C 117.613281 122.054688 119.757812 122.515625 121.246094 122.265625 C 120.003906 121.59375 120.0625 120.6875 119.835938 120.03125 Z M 112.054688 121.453125 C 112.871094 122.152344 113.683594 122.449219 114.34375 122.46875 C 113.78125 122.351562 113.152344 122.050781 112.519531 121.507812 C 111.855469 120.9375 111.4375 120.238281 111.292969 119.691406 C 111.042969 118.753906 110.714844 119.007812 110.789062 119.472656 C 110.886719 120.039062 111.320312 120.824219 112.054688 121.453125 Z M 113.664062 120.265625 C 112.511719 116.8125 109.105469 118.824219 110.34375 120.921875 C 111.234375 122.441406 113.554688 122.957031 115.171875 122.707031 C 113.832031 121.964844 113.90625 120.976562 113.664062 120.265625 Z M 104.308594 120.753906 C 104.410156 120.929688 104.523438 121.109375 104.648438 121.289062 C 104.773438 121.464844 104.90625 121.644531 105.050781 121.808594 C 105.128906 121.898438 105.207031 121.988281 105.28125 122.070312 C 105.320312 122.109375 105.359375 122.148438 105.394531 122.183594 C 105.445312 122.222656 105.503906 122.257812 105.554688 122.292969 C 105.769531 122.429688 105.984375 122.542969 106.191406 122.632812 C 106.605469 122.8125 107.003906 122.902344 107.359375 122.910156 C 106.757812 122.78125 106.078125 122.453125 105.402344 121.863281 C 104.898438 121.246094 104.503906 120.519531 104.328125 119.945312 C 104.179688 119.449219 104.023438 119.277344 103.929688 119.292969 C 103.832031 119.3125 103.800781 119.507812 103.867188 119.75 C 103.945312 120.050781 104.101562 120.394531 104.308594 120.753906 Z M 106.652344 120.53125 C 106.347656 119.601562 105.890625 119.039062 105.398438 118.75 C 104.949219 118.464844 104.441406 118.480469 104.054688 118.703125 C 103.664062 118.921875 103.394531 119.332031 103.335938 119.8125 C 103.273438 120.292969 103.414062 120.835938 103.726562 121.351562 C 104.1875 122.105469 104.757812 122.59375 105.375 122.910156 L 105.402344 122.925781 L 105.449219 122.9375 L 105.539062 122.964844 C 105.597656 122.984375 105.660156 123 105.722656 123.015625 C 105.84375 123.050781 105.96875 123.078125 106.09375 123.101562 C 106.339844 123.152344 106.589844 123.1875 106.835938 123.210938 C 107.332031 123.253906 107.816406 123.238281 108.25 123.171875 C 106.816406 122.363281 106.902344 121.304688 106.652344 120.53125 Z M 152.316406 108.789062 C 152.257812 109.003906 152.183594 109.183594 152.09375 109.320312 C 152.003906 109.460938 151.90625 109.558594 151.808594 109.628906 C 151.605469 109.757812 151.402344 109.753906 151.261719 109.652344 C 151.261719 109.652344 151.222656 109.707031 151.152344 109.8125 C 151.085938 109.917969 150.972656 110.066406 150.832031 110.265625 C 150.542969 110.65625 150.105469 111.222656 149.496094 111.886719 C 148.886719 112.550781 148.109375 113.328125 147.132812 114.117188 C 146.160156 114.910156 144.984375 115.71875 143.601562 116.4375 C 142.222656 117.152344 140.613281 117.773438 138.804688 118.042969 C 138.351562 118.109375 137.886719 118.160156 137.414062 118.171875 C 137.296875 118.175781 137.179688 118.179688 137.0625 118.183594 C 136.949219 118.183594 136.839844 118.183594 136.730469 118.183594 C 136.507812 118.183594 136.285156 118.183594 136.0625 118.183594 C 135.167969 118.1875 134.253906 118.191406 133.328125 118.191406 C 129.613281 118.203125 125.648438 118.210938 121.6875 118.222656 C 117.726562 118.234375 113.765625 118.246094 110.050781 118.253906 C 109.121094 118.257812 108.207031 118.257812 107.3125 118.261719 C 106.867188 118.261719 106.425781 118.265625 105.988281 118.265625 C 105.773438 118.265625 105.554688 118.265625 105.339844 118.269531 C 105.140625 118.269531 104.9375 118.273438 104.738281 118.285156 C 103.152344 118.359375 101.699219 118.722656 100.488281 119.316406 C 99.273438 119.902344 98.304688 120.703125 97.523438 121.507812 C 96.742188 122.320312 96.144531 123.132812 95.617188 123.832031 C 95.355469 124.179688 95.109375 124.503906 94.863281 124.789062 C 94.609375 125.085938 94.367188 125.320312 94.15625 125.480469 C 93.941406 125.644531 93.753906 125.734375 93.625 125.773438 C 93.5625 125.792969 93.515625 125.804688 93.480469 125.8125 C 93.449219 125.816406 93.429688 125.820312 93.429688 125.820312 L 93.210938 125.507812 C 93.210938 125.507812 93.238281 125.503906 93.292969 125.496094 C 93.347656 125.484375 93.429688 125.464844 93.53125 125.421875 C 93.738281 125.339844 94.015625 125.148438 94.304688 124.851562 C 94.910156 124.234375 95.511719 123.332031 96.316406 122.347656 C 96.71875 121.859375 97.167969 121.351562 97.6875 120.867188 C 98.207031 120.382812 98.792969 119.917969 99.445312 119.519531 C 100.097656 119.117188 100.816406 118.78125 101.582031 118.535156 C 102.347656 118.285156 103.15625 118.125 103.976562 118.042969 C 104.390625 118 104.804688 117.980469 105.21875 117.976562 C 105.421875 117.972656 105.644531 117.976562 105.859375 117.976562 C 106.074219 117.976562 106.289062 117.976562 106.503906 117.976562 C 107.359375 117.980469 108.199219 117.980469 109.015625 117.984375 C 110.648438 117.988281 112.167969 117.992188 113.472656 117.996094 C 116.082031 118.003906 117.820312 118.007812 117.820312 118.007812 C 116.648438 117.820312 115.847656 116.492188 116.847656 114.804688 C 117.894531 113.042969 120.601562 112.460938 122.484375 112.765625 C 120.917969 113.621094 120.992188 114.765625 120.710938 115.597656 C 120.171875 117.160156 119.246094 117.878906 118.386719 118.007812 L 123.347656 118.023438 C 122.332031 117.785156 121.679688 116.597656 122.582031 115.113281 C 123.554688 113.515625 126.027344 113.003906 127.742188 113.300781 C 126.304688 114.066406 126.363281 115.113281 126.09375 115.863281 C 125.621094 117.210938 124.832031 117.863281 124.082031 118.023438 L 128.46875 118.035156 C 127.539062 117.828125 126.949219 116.738281 127.789062 115.394531 C 128.683594 113.960938 130.921875 113.523438 132.46875 113.808594 C 131.164062 114.484375 131.203125 115.433594 130.953125 116.109375 C 130.507812 117.316406 129.792969 117.898438 129.117188 118.039062 L 133.296875 118.050781 C 132.375 117.953125 131.738281 116.921875 132.558594 115.652344 C 133.382812 114.382812 135.386719 114.019531 136.765625 114.292969 C 135.585938 114.878906 135.605469 115.726562 135.375 116.328125 C 134.929688 117.484375 134.214844 117.988281 133.574219 118.050781 C 133.574219 118.050781 134.8125 118.050781 136.671875 118.058594 C 136.785156 118.058594 136.90625 118.058594 137.027344 118.058594 C 137.15625 118.054688 137.285156 118.050781 137.421875 118.050781 C 137.6875 118.050781 137.964844 118.019531 138.246094 118 C 138.808594 117.933594 139.402344 117.84375 139.996094 117.695312 C 141.191406 117.410156 142.414062 116.945312 143.566406 116.359375 C 144.136719 116.0625 144.699219 115.742188 145.230469 115.398438 C 145.765625 115.054688 146.277344 114.699219 146.75 114.332031 C 147.707031 113.59375 148.53125 112.828125 149.199219 112.132812 C 149.867188 111.4375 150.375 110.808594 150.714844 110.355469 C 150.882812 110.125 151.015625 109.949219 151.101562 109.824219 C 151.1875 109.695312 151.234375 109.628906 151.234375 109.628906 C 151.140625 109.550781 151.078125 109.425781 151.0625 109.265625 C 151.050781 109.109375 151.082031 108.917969 151.1875 108.703125 C 151.257812 108.550781 151.355469 108.414062 151.472656 108.300781 C 151.59375 108.183594 151.722656 108.082031 151.871094 107.996094 C 152.160156 107.828125 152.480469 107.71875 152.761719 107.695312 C 152.34375 108.109375 152.386719 108.484375 152.316406 108.789062 " fill-opacity="1" fill-rule="evenodd"/></g><g fill="#3b291f" fill-opacity="1"><g transform="translate(0.397093, 86.668004)"><g><path d="M 15.703125 -5.625 L 6.546875 -5.625 L 4.703125 -0.71875 C 4.597656 -0.539062 4.453125 -0.375 4.265625 -0.21875 C 4.078125 -0.0703125 3.882812 0 3.6875 0 L 1.28125 0 C 0.90625 0 0.628906 -0.101562 0.453125 -0.3125 C 0.285156 -0.519531 0.253906 -0.765625 0.359375 -1.046875 L 8.75 -22.328125 C 8.863281 -22.492188 9.019531 -22.65625 9.21875 -22.8125 C 9.414062 -22.96875 9.601562 -23.046875 9.78125 -23.046875 L 13 -23.046875 C 13.15625 -23.046875 13.335938 -22.988281 13.546875 -22.875 C 13.753906 -22.769531 13.878906 -22.660156 13.921875 -22.546875 L 21.828125 -1.015625 C 21.929688 -0.734375 21.882812 -0.492188 21.6875 -0.296875 C 21.5 -0.0976562 21.238281 0 20.90625 0 L 18.4375 0 C 18.28125 0 18.097656 -0.0507812 17.890625 -0.15625 C 17.679688 -0.269531 17.554688 -0.382812 17.515625 -0.5 Z M 8.03125 -9.484375 L 14.328125 -9.484375 L 11.359375 -18.078125 Z M 8.03125 -9.484375 "/></g></g></g><g fill="#3b291f" fill-opacity="1"><g transform="translate(22.620579, 86.668004)"><g><path d="M 6.578125 -8.125 L 6.578125 -0.75 C 6.578125 -0.53125 6.484375 -0.347656 6.296875 -0.203125 C 6.117188 -0.0664062 5.894531 0 5.625 0 L 3.15625 0 C 2.875 0 2.644531 -0.0664062 2.46875 -0.203125 C 2.289062 -0.347656 2.203125 -0.53125 2.203125 -0.75 L 2.203125 -22.28125 C 2.203125 -22.507812 2.289062 -22.691406 2.46875 -22.828125 C 2.644531 -22.972656 2.875 -23.046875 3.15625 -23.046875 L 8.859375 -23.046875 C 10.566406 -23.046875 12.09375 -22.789062 13.4375 -22.28125 C 14.789062 -21.78125 15.859375 -20.984375 16.640625 -19.890625 C 17.421875 -18.804688 17.8125 -17.390625 17.8125 -15.640625 C 17.8125 -13.179688 17.023438 -11.3125 15.453125 -10.03125 C 13.890625 -8.757812 11.722656 -8.125 8.953125 -8.125 Z M 8.859375 -11.921875 C 10.546875 -11.921875 11.753906 -12.265625 12.484375 -12.953125 C 13.222656 -13.640625 13.59375 -14.523438 13.59375 -15.609375 C 13.59375 -15.910156 13.539062 -16.265625 13.4375 -16.671875 C 13.34375 -17.078125 13.132812 -17.472656 12.8125 -17.859375 C 12.5 -18.242188 12.023438 -18.5625 11.390625 -18.8125 C 10.753906 -19.0625 9.898438 -19.1875 8.828125 -19.1875 L 6.578125 -19.1875 L 6.578125 -11.921875 Z M 8.859375 -11.921875 "/></g></g></g><g fill="#3b291f" fill-opacity="1"><g transform="translate(41.35415, 86.668004)"><g><path d="M 17.21875 -3.890625 C 17.5 -3.890625 17.726562 -3.820312 17.90625 -3.6875 C 18.082031 -3.550781 18.171875 -3.363281 18.171875 -3.125 L 18.171875 -0.75 C 18.171875 -0.53125 18.082031 -0.347656 17.90625 -0.203125 C 17.726562 -0.0664062 17.5 0 17.21875 0 L 3.15625 0 C 2.875 0 2.644531 -0.0664062 2.46875 -0.203125 C 2.289062 -0.347656 2.203125 -0.53125 2.203125 -0.75 L 2.203125 -22.28125 C 2.203125 -22.507812 2.289062 -22.691406 2.46875 -22.828125 C 2.644531 -22.972656 2.875 -23.046875 3.15625 -23.046875 L 16.953125 -23.046875 C 17.210938 -23.046875 17.4375 -22.972656 17.625 -22.828125 C 17.8125 -22.691406 17.90625 -22.507812 17.90625 -22.28125 L 17.90625 -19.859375 C 17.90625 -19.609375 17.8125 -19.414062 17.625 -19.28125 C 17.4375 -19.15625 17.210938 -19.09375 16.953125 -19.09375 L 6.546875 -19.09375 L 6.546875 -14.515625 L 16.328125 -14.515625 C 16.585938 -14.515625 16.8125 -14.441406 17 -14.296875 C 17.1875 -14.160156 17.28125 -13.984375 17.28125 -13.765625 L 17.28125 -11.515625 C 17.28125 -11.273438 17.1875 -11.082031 17 -10.9375 C 16.8125 -10.800781 16.585938 -10.734375 16.328125 -10.734375 L 6.546875 -10.734375 L 6.546875 -3.890625 Z M 17.21875 -3.890625 "/></g></g></g><g fill="#3b291f" fill-opacity="1"><g transform="translate(61.174207, 86.668004)"><g><path d="M 14.0625 -22.515625 C 14.164062 -22.691406 14.273438 -22.828125 14.390625 -22.921875 C 14.515625 -23.023438 14.703125 -23.078125 14.953125 -23.078125 L 17.71875 -23.078125 C 18.082031 -23.078125 18.335938 -22.941406 18.484375 -22.671875 C 18.628906 -22.410156 18.632812 -22.148438 18.5 -21.890625 L 12.578125 -12.140625 L 19.296875 -1.046875 C 19.398438 -0.785156 19.375 -0.546875 19.21875 -0.328125 C 19.070312 -0.109375 18.832031 0 18.5 0 L 15.578125 0 C 15.441406 0 15.296875 -0.0351562 15.140625 -0.109375 C 14.984375 -0.191406 14.832031 -0.351562 14.6875 -0.59375 L 9.75 -9.3125 L 4.8125 -0.59375 C 4.65625 -0.351562 4.5 -0.191406 4.34375 -0.109375 C 4.1875 -0.0351562 4.046875 0 3.921875 0 L 0.984375 0 C 0.660156 0 0.421875 -0.109375 0.265625 -0.328125 C 0.109375 -0.546875 0.0859375 -0.785156 0.203125 -1.046875 L 6.90625 -12.140625 L 0.984375 -21.890625 C 0.859375 -22.148438 0.863281 -22.410156 1 -22.671875 C 1.144531 -22.941406 1.40625 -23.078125 1.78125 -23.078125 L 4.546875 -23.078125 C 4.785156 -23.078125 4.960938 -23.023438 5.078125 -22.921875 C 5.203125 -22.828125 5.320312 -22.691406 5.4375 -22.515625 L 9.75 -15.046875 Z M 14.0625 -22.515625 "/></g></g></g><g fill="#3b291f" fill-opacity="1"><g transform="translate(81.158878, 86.668004)"><g/></g></g><g fill="#3b291f" fill-opacity="1"><g transform="translate(91.167683, 86.668004)"><g><path d="M 20.40625 -11.5625 C 20.40625 -10.0625 20.191406 -8.628906 19.765625 -7.265625 C 19.335938 -5.910156 18.675781 -4.703125 17.78125 -3.640625 C 16.894531 -2.578125 15.765625 -1.71875 14.390625 -1.0625 C 13.023438 -0.414062 11.398438 -0.0625 9.515625 0 L 3.15625 0 C 2.894531 0 2.671875 -0.0664062 2.484375 -0.203125 C 2.296875 -0.347656 2.203125 -0.53125 2.203125 -0.75 L 2.203125 -22.28125 C 2.203125 -22.507812 2.296875 -22.691406 2.484375 -22.828125 C 2.671875 -22.972656 2.894531 -23.046875 3.15625 -23.046875 L 9.453125 -23.046875 C 11.597656 -23.046875 13.492188 -22.5625 15.140625 -21.59375 C 16.785156 -20.625 18.070312 -19.28125 19 -17.5625 C 19.9375 -15.84375 20.40625 -13.84375 20.40625 -11.5625 Z M 6.546875 -3.921875 L 9.453125 -3.921875 C 10.859375 -3.960938 12.046875 -4.335938 13.015625 -5.046875 C 13.992188 -5.765625 14.738281 -6.695312 15.25 -7.84375 C 15.769531 -9 16.03125 -10.238281 16.03125 -11.5625 C 16.03125 -12.875 15.816406 -14.101562 15.390625 -15.25 C 14.960938 -16.40625 14.269531 -17.335938 13.3125 -18.046875 C 12.363281 -18.765625 11.078125 -19.125 9.453125 -19.125 L 6.546875 -19.125 Z M 6.546875 -3.921875 "/></g></g></g><g fill="#3b291f" fill-opacity="1"><g transform="translate(113.094855, 86.668004)"><g><path d="M 10.703125 -3.6875 C 12.367188 -3.6875 13.535156 -4.21875 14.203125 -5.28125 C 14.867188 -6.34375 15.203125 -7.804688 15.203125 -9.671875 L 15.203125 -22.28125 C 15.203125 -22.507812 15.285156 -22.691406 15.453125 -22.828125 C 15.617188 -22.972656 15.84375 -23.046875 16.125 -23.046875 L 18.734375 -23.046875 C 18.972656 -23.046875 19.179688 -22.972656 19.359375 -22.828125 C 19.535156 -22.691406 19.625 -22.507812 19.625 -22.28125 L 19.625 -9.78125 C 19.625 -7.40625 19.25 -5.476562 18.5 -4 C 17.75 -2.519531 16.703125 -1.425781 15.359375 -0.71875 C 14.023438 -0.0195312 12.472656 0.328125 10.703125 0.328125 C 9.117188 0.328125 7.675781 -0.0078125 6.375 -0.6875 C 5.082031 -1.375 4.050781 -2.457031 3.28125 -3.9375 C 2.519531 -5.414062 2.140625 -7.328125 2.140625 -9.671875 L 2.140625 -22.28125 C 2.140625 -22.507812 2.234375 -22.691406 2.421875 -22.828125 C 2.609375 -22.972656 2.832031 -23.046875 3.09375 -23.046875 L 5.625 -23.046875 C 5.914062 -23.046875 6.144531 -22.972656 6.3125 -22.828125 C 6.488281 -22.691406 6.578125 -22.507812 6.578125 -22.28125 L 6.578125 -9.671875 C 6.578125 -8.617188 6.710938 -7.632812 6.984375 -6.71875 C 7.265625 -5.8125 7.707031 -5.078125 8.3125 -4.515625 C 8.914062 -3.960938 9.710938 -3.6875 10.703125 -3.6875 Z M 10.703125 -3.6875 "/></g></g></g><g fill="#3b291f" fill-opacity="1"><g transform="translate(134.824484, 86.668004)"><g><path d="M 19.421875 -7.046875 C 19.421875 -5.441406 19.039062 -4.117188 18.28125 -3.078125 C 17.53125 -2.035156 16.488281 -1.257812 15.15625 -0.75 C 13.832031 -0.25 12.3125 0 10.59375 0 L 3.125 0 C 2.863281 0 2.640625 -0.0664062 2.453125 -0.203125 C 2.265625 -0.347656 2.171875 -0.53125 2.171875 -0.75 L 2.171875 -22.328125 C 2.171875 -22.546875 2.265625 -22.722656 2.453125 -22.859375 C 2.640625 -23.003906 2.863281 -23.078125 3.125 -23.078125 L 10.375 -23.078125 C 11.78125 -23.078125 13.078125 -22.867188 14.265625 -22.453125 C 15.460938 -22.035156 16.425781 -21.375 17.15625 -20.46875 C 17.894531 -19.570312 18.265625 -18.378906 18.265625 -16.890625 C 18.265625 -16.035156 18.054688 -15.195312 17.640625 -14.375 C 17.222656 -13.550781 16.597656 -12.875 15.765625 -12.34375 C 18.203125 -11.15625 19.421875 -9.390625 19.421875 -7.046875 Z M 10.890625 -13.921875 C 11.992188 -13.921875 12.773438 -14.203125 13.234375 -14.765625 C 13.691406 -15.328125 13.921875 -16.003906 13.921875 -16.796875 C 13.921875 -17.453125 13.722656 -17.957031 13.328125 -18.3125 C 12.929688 -18.675781 12.457031 -18.929688 11.90625 -19.078125 C 11.363281 -19.222656 10.851562 -19.296875 10.375 -19.296875 L 6.625 -19.296875 L 6.625 -13.921875 Z M 6.625 -10.265625 L 6.625 -3.859375 L 10.59375 -3.859375 C 11.257812 -3.859375 11.9375 -3.945312 12.625 -4.125 C 13.3125 -4.3125 13.894531 -4.640625 14.375 -5.109375 C 14.863281 -5.585938 15.109375 -6.234375 15.109375 -7.046875 C 15.109375 -7.835938 14.9375 -8.457031 14.59375 -8.90625 C 14.257812 -9.351562 13.816406 -9.671875 13.265625 -9.859375 C 12.710938 -10.046875 12.128906 -10.160156 11.515625 -10.203125 C 10.898438 -10.242188 10.332031 -10.265625 9.8125 -10.265625 Z M 6.625 -10.265625 "/></g></g></g><g fill="#3b291f" fill-opacity="1"><g transform="translate(155.533483, 86.668004)"><g><path d="M 15.703125 -5.625 L 6.546875 -5.625 L 4.703125 -0.71875 C 4.597656 -0.539062 4.453125 -0.375 4.265625 -0.21875 C 4.078125 -0.0703125 3.882812 0 3.6875 0 L 1.28125 0 C 0.90625 0 0.628906 -0.101562 0.453125 -0.3125 C 0.285156 -0.519531 0.253906 -0.765625 0.359375 -1.046875 L 8.75 -22.328125 C 8.863281 -22.492188 9.019531 -22.65625 9.21875 -22.8125 C 9.414062 -22.96875 9.601562 -23.046875 9.78125 -23.046875 L 13 -23.046875 C 13.15625 -23.046875 13.335938 -22.988281 13.546875 -22.875 C 13.753906 -22.769531 13.878906 -22.660156 13.921875 -22.546875 L 21.828125 -1.015625 C 21.929688 -0.734375 21.882812 -0.492188 21.6875 -0.296875 C 21.5 -0.0976562 21.238281 0 20.90625 0 L 18.4375 0 C 18.28125 0 18.097656 -0.0507812 17.890625 -0.15625 C 17.679688 -0.269531 17.554688 -0.382812 17.515625 -0.5 Z M 8.03125 -9.484375 L 14.328125 -9.484375 L 11.359375 -18.078125 Z M 8.03125 -9.484375 "/></g></g></g><g fill="#3b291f" fill-opacity="1"><g transform="translate(177.756969, 86.668004)"><g><path d="M 2.171875 -22.328125 C 2.171875 -22.546875 2.257812 -22.722656 2.4375 -22.859375 C 2.613281 -23.003906 2.84375 -23.078125 3.125 -23.078125 L 5.59375 -23.078125 C 5.851562 -23.078125 6.078125 -23.003906 6.265625 -22.859375 C 6.453125 -22.722656 6.546875 -22.546875 6.546875 -22.328125 L 6.546875 -0.75 C 6.546875 -0.53125 6.453125 -0.347656 6.265625 -0.203125 C 6.078125 -0.0664062 5.851562 0 5.59375 0 L 3.125 0 C 2.84375 0 2.613281 -0.0664062 2.4375 -0.203125 C 2.257812 -0.347656 2.171875 -0.53125 2.171875 -0.75 Z M 2.171875 -22.328125 "/></g></g></g><g fill="#3b291f" fill-opacity="1"><g transform="translate(10.973742, 104.677616)"><g><path d="M 5.796875 0.15625 C 4.878906 0.15625 4.0625 -0.0507812 3.34375 -0.46875 C 2.625 -0.894531 2.0625 -1.515625 1.65625 -2.328125 C 1.25 -3.140625 1.046875 -4.113281 1.046875 -5.25 C 1.046875 -6.375 1.25 -7.34375 1.65625 -8.15625 C 2.0625 -8.96875 2.625 -9.582031 3.34375 -10 C 4.0625 -10.425781 4.878906 -10.640625 5.796875 -10.640625 C 6.773438 -10.640625 7.585938 -10.453125 8.234375 -10.078125 C 8.890625 -9.710938 9.359375 -9.15625 9.640625 -8.40625 L 8.859375 -7.875 L 8.671875 -7.875 C 8.390625 -8.476562 8.019531 -8.90625 7.5625 -9.15625 C 7.101562 -9.40625 6.515625 -9.53125 5.796875 -9.53125 C 5.140625 -9.53125 4.550781 -9.382812 4.03125 -9.09375 C 3.519531 -8.800781 3.113281 -8.332031 2.8125 -7.6875 C 2.507812 -7.050781 2.359375 -6.238281 2.359375 -5.25 C 2.359375 -4.25 2.507812 -3.429688 2.8125 -2.796875 C 3.113281 -2.160156 3.519531 -1.695312 4.03125 -1.40625 C 4.550781 -1.113281 5.140625 -0.96875 5.796875 -0.96875 C 6.554688 -0.96875 7.175781 -1.132812 7.65625 -1.46875 C 8.144531 -1.8125 8.503906 -2.367188 8.734375 -3.140625 L 8.921875 -3.140625 L 9.734375 -2.71875 C 9.484375 -1.789062 9.019531 -1.078125 8.34375 -0.578125 C 7.675781 -0.0859375 6.828125 0.15625 5.796875 0.15625 Z M 5.796875 0.15625 "/></g></g></g><g fill="#3b291f" fill-opacity="1"><g transform="translate(31.124327, 104.677616)"><g><path d="M 5.75 0.15625 C 4.84375 0.15625 4.035156 -0.0390625 3.328125 -0.4375 C 2.617188 -0.832031 2.0625 -1.429688 1.65625 -2.234375 C 1.25 -3.035156 1.046875 -4.039062 1.046875 -5.25 C 1.046875 -6.445312 1.25 -7.445312 1.65625 -8.25 C 2.0625 -9.050781 2.617188 -9.648438 3.328125 -10.046875 C 4.035156 -10.441406 4.84375 -10.640625 5.75 -10.640625 C 6.65625 -10.640625 7.460938 -10.441406 8.171875 -10.046875 C 8.878906 -9.648438 9.4375 -9.050781 9.84375 -8.25 C 10.25 -7.445312 10.453125 -6.445312 10.453125 -5.25 C 10.453125 -4.039062 10.25 -3.035156 9.84375 -2.234375 C 9.4375 -1.429688 8.878906 -0.832031 8.171875 -0.4375 C 7.460938 -0.0390625 6.65625 0.15625 5.75 0.15625 Z M 5.75 -0.984375 C 6.84375 -0.984375 7.679688 -1.320312 8.265625 -2 C 8.847656 -2.6875 9.140625 -3.769531 9.140625 -5.25 C 9.140625 -6.71875 8.847656 -7.789062 8.265625 -8.46875 C 7.679688 -9.15625 6.84375 -9.5 5.75 -9.5 C 3.488281 -9.5 2.359375 -8.082031 2.359375 -5.25 C 2.359375 -2.40625 3.488281 -0.984375 5.75 -0.984375 Z M 5.75 -0.984375 "/></g></g></g><g fill="#3b291f" fill-opacity="1"><g transform="translate(52.493531, 104.677616)"><g><path d="M 2.796875 0 L 1.578125 0 L 1.578125 -10.484375 L 3.09375 -10.484375 L 8.21875 -2.46875 L 8.390625 -2.5 L 8.390625 -10.484375 L 9.59375 -10.484375 L 9.59375 0 L 8.296875 0 L 2.96875 -8.5625 L 2.796875 -8.546875 Z M 2.796875 0 "/></g></g></g><g fill="#3b291f" fill-opacity="1"><g transform="translate(73.540163, 104.677616)"><g><path d="M 5.796875 0.15625 C 4.878906 0.15625 4.0625 -0.0507812 3.34375 -0.46875 C 2.625 -0.894531 2.0625 -1.515625 1.65625 -2.328125 C 1.25 -3.140625 1.046875 -4.113281 1.046875 -5.25 C 1.046875 -6.375 1.25 -7.34375 1.65625 -8.15625 C 2.0625 -8.96875 2.625 -9.582031 3.34375 -10 C 4.0625 -10.425781 4.878906 -10.640625 5.796875 -10.640625 C 6.773438 -10.640625 7.585938 -10.453125 8.234375 -10.078125 C 8.890625 -9.710938 9.359375 -9.15625 9.640625 -8.40625 L 8.859375 -7.875 L 8.671875 -7.875 C 8.390625 -8.476562 8.019531 -8.90625 7.5625 -9.15625 C 7.101562 -9.40625 6.515625 -9.53125 5.796875 -9.53125 C 5.140625 -9.53125 4.550781 -9.382812 4.03125 -9.09375 C 3.519531 -8.800781 3.113281 -8.332031 2.8125 -7.6875 C 2.507812 -7.050781 2.359375 -6.238281 2.359375 -5.25 C 2.359375 -4.25 2.507812 -3.429688 2.8125 -2.796875 C 3.113281 -2.160156 3.519531 -1.695312 4.03125 -1.40625 C 4.550781 -1.113281 5.140625 -0.96875 5.796875 -0.96875 C 6.554688 -0.96875 7.175781 -1.132812 7.65625 -1.46875 C 8.144531 -1.8125 8.503906 -2.367188 8.734375 -3.140625 L 8.921875 -3.140625 L 9.734375 -2.71875 C 9.484375 -1.789062 9.019531 -1.078125 8.34375 -0.578125 C 7.675781 -0.0859375 6.828125 0.15625 5.796875 0.15625 Z M 5.796875 0.15625 "/></g></g></g><g fill="#3b291f" fill-opacity="1"><g transform="translate(93.69075, 104.677616)"><g><path d="M 2.8125 0 L 1.578125 0 L 1.578125 -10.484375 L 2.8125 -10.484375 Z M 2.8125 0 "/></g></g></g><g fill="#3b291f" fill-opacity="1"><g transform="translate(107.970466, 104.677616)"><g><path d="M 2.8125 -4.9375 L 2.8125 -1.015625 L 8.15625 -1.015625 L 8.15625 0 L 1.578125 0 L 1.578125 -10.484375 L 8.046875 -10.484375 L 8.046875 -9.46875 L 2.8125 -9.46875 L 2.8125 -5.953125 L 7.4375 -5.953125 L 7.4375 -4.9375 Z M 2.8125 -4.9375 "/></g></g></g><g fill="#3b291f" fill-opacity="1"><g transform="translate(126.694559, 104.677616)"><g><path d="M 1.578125 0 L 1.578125 -10.484375 L 5.390625 -10.484375 C 6.097656 -10.484375 6.6875 -10.367188 7.15625 -10.140625 C 7.632812 -9.910156 7.992188 -9.582031 8.234375 -9.15625 C 8.472656 -8.726562 8.59375 -8.226562 8.59375 -7.65625 C 8.59375 -7 8.429688 -6.457031 8.109375 -6.03125 C 7.785156 -5.613281 7.28125 -5.300781 6.59375 -5.09375 L 6.59375 -4.9375 C 6.925781 -4.800781 7.203125 -4.585938 7.421875 -4.296875 C 7.640625 -4.015625 7.835938 -3.59375 8.015625 -3.03125 L 8.984375 0 L 7.71875 0 L 6.671875 -3.203125 C 6.546875 -3.578125 6.398438 -3.875 6.234375 -4.09375 C 6.078125 -4.3125 5.875 -4.46875 5.625 -4.5625 C 5.375 -4.65625 5.054688 -4.703125 4.671875 -4.703125 L 2.8125 -4.703125 L 2.8125 0 Z M 5.359375 -5.75 C 6.015625 -5.75 6.503906 -5.898438 6.828125 -6.203125 C 7.148438 -6.503906 7.3125 -6.96875 7.3125 -7.59375 C 7.3125 -8.21875 7.148438 -8.679688 6.828125 -8.984375 C 6.503906 -9.285156 6.015625 -9.4375 5.359375 -9.4375 L 2.8125 -9.4375 L 2.8125 -5.75 Z M 5.359375 -5.75 "/></g></g></g><g fill="#3b291f" fill-opacity="1"><g transform="translate(146.271679, 104.677616)"><g><path d="M 5.515625 0.15625 C 4.640625 0.15625 3.863281 -0.0390625 3.1875 -0.4375 C 2.519531 -0.84375 1.992188 -1.453125 1.609375 -2.265625 C 1.234375 -3.078125 1.046875 -4.070312 1.046875 -5.25 C 1.046875 -6.414062 1.25 -7.40625 1.65625 -8.21875 C 2.0625 -9.03125 2.617188 -9.632812 3.328125 -10.03125 C 4.046875 -10.4375 4.875 -10.640625 5.8125 -10.640625 C 6.820312 -10.640625 7.648438 -10.457031 8.296875 -10.09375 C 8.941406 -9.726562 9.394531 -9.191406 9.65625 -8.484375 L 8.859375 -8 L 8.671875 -8 C 8.398438 -8.550781 8.03125 -8.941406 7.5625 -9.171875 C 7.101562 -9.410156 6.519531 -9.53125 5.8125 -9.53125 C 3.507812 -9.53125 2.359375 -8.101562 2.359375 -5.25 C 2.359375 -3.757812 2.648438 -2.671875 3.234375 -1.984375 C 3.816406 -1.304688 4.628906 -0.96875 5.671875 -0.96875 C 6.617188 -0.96875 7.332031 -1.179688 7.8125 -1.609375 C 8.289062 -2.046875 8.53125 -2.734375 8.53125 -3.671875 L 8.53125 -4.59375 L 5.546875 -4.59375 L 5.546875 -5.59375 L 9.71875 -5.59375 L 9.71875 0 L 8.578125 0 L 8.578125 -1.40625 L 8.4375 -1.4375 C 8.15625 -0.894531 7.765625 -0.492188 7.265625 -0.234375 C 6.773438 0.0234375 6.191406 0.15625 5.515625 0.15625 Z M 5.515625 0.15625 "/></g></g></g><g fill="#3b291f" fill-opacity="1"><g transform="translate(167.038743, 104.677616)"><g><path d="M 2.8125 -4.9375 L 2.8125 -1.015625 L 8.15625 -1.015625 L 8.15625 0 L 1.578125 0 L 1.578125 -10.484375 L 8.046875 -10.484375 L 8.046875 -9.46875 L 2.8125 -9.46875 L 2.8125 -5.953125 L 7.4375 -5.953125 L 7.4375 -4.9375 Z M 2.8125 -4.9375 "/></g></g></g></svg>